<?xml version="1.0" standalone="no"?><!DOCTYPE svg PUBLIC "-//W3C//DTD SVG 1.1//EN" "http://www.w3.org/Graphics/SVG/1.1/DTD/svg11.dtd"><svg t="1548835427133" class="icon" style="" viewBox="0 0 1024 1024" version="1.1" xmlns="http://www.w3.org/2000/svg" p-id="3007" xmlns:xlink="http://www.w3.org/1999/xlink" width="200" height="200"><defs><style type="text/css"></style></defs><path d="M163.1 312.04h-64c0-58.006 23.463-112.441 66.068-153.276 42.234-40.48 98.331-62.773 157.957-62.773v64C234.887 159.99 163.1 228.199 163.1 312.04z" fill="" p-id="3008"></path><path d="M515.223 926.684c-9.612 0-19.115-4.312-25.416-12.528-37.336-48.684-84.612-90.408-134.664-134.582-61.247-54.056-124.579-109.95-173.149-182.644-55.762-83.456-82.869-176.68-82.869-284.998 0-17.673 14.327-32 32-32 17.673 0 32 14.327 32 32 0 212.81 113.842 313.284 234.368 419.657 50.138 44.251 101.983 90.008 143.099 143.619 10.755 14.023 8.105 34.11-5.919 44.866a31.862 31.862 0 0 1-19.45 6.61zM517.991 287.13c-1.564 0-3.146-0.115-4.74-0.352-17.481-2.596-29.549-18.872-26.953-36.353 3.551-23.914 12.278-46.138 25.938-66.058 12.886-18.791 29.88-35.106 50.509-48.493 39.341-25.529 89.296-39.022 144.466-39.022 17.673 0 32 14.327 32 32 0 17.673-14.327 32-32 32-85.479 0-148.817 39.774-157.607 98.973-2.359 15.888-16.02 27.305-31.613 27.305z" fill="" p-id="3009"></path><path d="M931.199 312.998h-64c0-83.84-71.786-152.049-160.024-152.049v-64c59.626 0 115.723 22.293 157.957 62.773 42.604 40.835 66.067 95.269 66.067 153.276z" fill="" p-id="3010"></path><path d="M540.492 915.113l-50.785-38.947c41.115-53.611 92.96-99.368 143.098-143.619C753.332 626.174 867.174 525.7 867.174 312.89h64c0 108.318-27.106 201.542-82.868 284.998-48.57 72.693-111.902 128.588-173.149 182.644-50.053 44.173-97.329 85.898-134.665 134.581zM511.375 286.13c-15.594 0-29.253-11.416-31.613-27.304-8.791-59.199-72.128-98.973-157.607-98.973-17.673 0-32-14.327-32-32 0-17.673 14.327-32 32-32 55.169 0 105.125 13.494 144.465 39.022 20.629 13.386 37.623 29.702 50.509 48.493 13.661 19.919 22.388 42.144 25.938 66.058 2.596 17.481-9.471 33.757-26.952 36.353a32.214 32.214 0 0 1-4.74 0.351z" fill="" p-id="3011"></path></svg>